<svg width="24" height="24" stroke-width="40" viewBox="0 0 24 24" clip-rule="evenodd" fill-rule="evenodd" stroke-linejoin="round" stroke-miterlimit="2" version="1.1" xml:space="preserve" xmlns="http://www.w3.org/2000/svg">
    <g transform="matrix(.034884 0 0 .034884 -6.4432 -5.4429)" stroke-miterlimit="2" stroke-width="40"><path d="m294.17 282.6c-8.8237-0.0359-17.58 1.4953-25.864 4.532-14.674 5.164-26.77 14.454-36.247 27.828-9.0606 12.94-13.599 27.384-13.599 43.341v283.44c0 20.703 7.3452 38.618 22.002 53.708 15.106 14.674 33.02 22.002 53.708 22.002 21.151 0 39.051-7.3284 53.724-21.985 15.106-15.106 22.64-33.022 22.64-53.725v-51.536c0.16053-11.162 11.656-8.2265 17.478 0 10.872 18.842 33.949 35.033 60.826 34.938v0.0157c26.86-0.11226 49.184-13.385 60.825-34.954 4.4107-5.1966 16.841-14.064 18.125 0v51.536c0 20.703 7.3273 38.618 21.985 53.708 15.122 14.674 33.013 22.002 53.716 22.002 21.135 0 39.051-7.3284 53.724-21.985 15.106-15.106 22.641-33.022 22.641-53.725v-283.44c0-15.957-4.743-30.4-14.221-43.341-9.0763-13.39-20.943-22.664-35.6-27.828-8.6272-3.0299-17.253-4.532-25.881-4.532-23.3 0-42.931 9.0594-58.903 27.181l-76.828 89.913c-1.7165 1.2989-7.4429 11.188-19.598 11.188-12.123 0-17.187-9.8879-18.919-11.171l-77.491-89.93c-15.522-18.121-34.94-27.181-58.24-27.181zm478.78 8e-3c-18.12 0-33.654 6.4718-46.588 19.408-12.509 12.508-18.762 27.822-18.762 45.943 0 18.121 6.2529 33.654 18.762 46.589 12.935 12.508 28.468 18.762 46.588 18.762 18.121 0 33.651-6.254 46.597-18.762 12.936-12.936 19.4-28.468 19.4-46.589 0-18.121-6.464-33.435-19.4-45.943-12.946-12.936-28.476-19.408-46.597-19.408zm0.63877 143.65c-18.121 0-33.654 6.473-46.589 19.409-12.936 12.946-19.4 28.476-19.4 46.597v159.83c0 18.12 6.464 33.652 19.4 46.588 12.946 12.509 28.479 18.762 46.589 18.762 18.131 0 33.45-6.2529 45.958-18.762 12.936-12.936 19.4-28.468 19.4-46.588v-159.83c0-18.131-6.464-33.661-19.4-46.597-12.518-12.936-27.838-19.409-45.958-19.409z" fill="none"/>
        
    </g>
</svg>
